<svg>
	<circle cx="200" cy="200" r="200"/>
	<path d="m11 30 1.9-1.7q83 1.5 106 1.5 80 0 142-1.5l1.2 1.7q-6.1 23-9 73l-1.5 1.9h-12l-2.2-1.9q0.24-2.2 0.24-3.9 0-21-3.2-39-15-6.8-42-8.7-27-2.2-41-2.2-19 0-49 2.7l-0.97 39-0.73 44-0.73 49q26 1.5 48 1.5 22 0 37-1.5 15-1.5 17-2.9 2.7-1.7 3.9-6.1 1.5-4.6 2.4-16l0.97-15 1.9-1.9h11l1.9 1.9q-0.49 26-1.2 53l1.2 55-1.9 1.9h-11l-1.9-1.9-1.7-15q-2.2-17-3.2-20-0.97-3.4-4.6-5.8-3.4-2.4-18-3.9-15-1.5-40-1.5-14 0-43 1.2-1.2 20-1.2 68 0 51 1.2 75h45q59 0 74-1.5 15-1.5 28-7 2.2-5.6 7-26 5.1-20 5.8-25l2.4-1.7h12l1.9 1.7q-2.2 10-4.4 36-1.9 26-1.9 44l-1.7 1.9q-46-1.5-121-1.5l-66-0.49q-23 0-48 1.9l-1.9-1.9v-8l1.9-2.4q14-7.3 16-9 2.2-1.9 3.4-42 1.5-41 1.5-62v-89l-0.24-55q0-18-0.49-29-0.49-11-1.7-16-1.2-4.9-2.9-6.8-1.5-1.9-5.1-3.2-3.4-1.5-12-2.4l-18-1.5-1.9-1.7z" fill="#555" />
	<circle cx="336" cy="332" r="47" fill="#e6b11e" />
</svg>
